<svg width="36" height="36" viewBox="0 0 36 36" fill="none" xmlns="http://www.w3.org/2000/svg">
<path d="M0 6C0 2.68629 2.68629 0 6 0H30C33.3137 0 36 2.68629 36 6V30C36 33.3137 33.3137 36 30 36H6C2.68629 36 0 33.3137 0 30V6Z" fill="#21252A"/>
<path d="M17.4969 21C17.7593 21 17.985 20.9032 18.1864 20.7154L22.756 16.3435C22.9146 16.1954 23 16.0133 23 15.797C23 15.3529 22.6217 15 22.152 15C21.9201 15 21.7005 15.0854 21.5297 15.2448L17.5031 19.1157L13.4703 15.2448C13.2995 15.0911 13.086 15 12.848 15C12.3783 15 12 15.3529 12 15.797C12 16.0133 12.0854 16.1954 12.244 16.3491L16.8136 20.7154C17.0272 20.9089 17.2407 21 17.4969 21Z" fill="#798694"/>
</svg>
