<svg width="42" height="42" viewBox="0 0 42 42" fill="none" xmlns="http://www.w3.org/2000/svg">
<path d="M1 7C1 3.68629 3.68629 1 7 1H35C38.3137 1 41 3.68629 41 7V35C41 38.3137 38.3137 41 35 41H7C3.68629 41 1 38.3137 1 35V7Z" fill="#030404"/>
<path d="M7 0.5C3.41015 0.5 0.5 3.41015 0.5 7V35C0.5 38.5899 3.41015 41.5 7 41.5H35C38.5899 41.5 41.5 38.5899 41.5 35V7C41.5 3.41015 38.5899 0.5 35 0.5H7Z" stroke="#8E949A" stroke-opacity="0.36"/>
<rect x="5" y="5" width="32" height="32" rx="4" fill="#BE3434"/>
<circle cx="26.2445" cy="22.9048" r="3.40482" fill="white" fill-opacity="0.24" stroke="white"/>
<path d="M28.7294 25.3896L31 27.5" stroke="white" stroke-linecap="round" stroke-linejoin="round"/>
<path d="M27.389 16H20.464H16.5471C14.8204 16 13.3558 17.2683 13.109 18.9773L12.3067 24.534C12.1449 25.6546 13.0141 26.6583 14.1463 26.6583V26.6583C14.7326 26.6583 15.2844 26.3818 15.6353 25.9121L17.5625 23.3328C17.6936 23.1573 17.8999 23.0539 18.119 23.0539H20.464" stroke="white" stroke-linecap="round"/>
</svg>
