<svg width="32" height="32" viewBox="0 0 32 32" fill="none" xmlns="http://www.w3.org/2000/svg">
<path d="M0.5 8C0.5 3.85786 3.85786 0.5 8 0.5H24C28.1421 0.5 31.5 3.85786 31.5 8V24C31.5 28.1421 28.1421 31.5 24 31.5H8C3.85786 31.5 0.5 28.1421 0.5 24V8Z" stroke="#7DC1F4"/>
<path d="M9.00395 12.4149C9.12268 11.5927 9.82735 10.9824 10.6582 10.9824H20.6051C21.4359 10.9824 22.1406 11.5927 22.2593 12.4149L23.2412 19.2154C23.3418 19.9123 22.8013 20.5365 22.0971 20.5365C21.7589 20.5365 21.4377 20.3884 21.2181 20.1312L18.7979 17.297C18.6223 17.0912 18.3653 16.9728 18.0948 16.9728H15.6316H13.1858C12.8942 16.9728 12.6196 17.1104 12.4451 17.344L10.4313 20.0392C10.1975 20.3522 9.82968 20.5365 9.439 20.5365H9.26171C8.50716 20.5365 7.9279 19.8676 8.03573 19.1208L9.00395 12.4149Z" stroke="#7DC1F4" stroke-width="0.983895"/>
</svg>
