<svg width="34" height="34" viewBox="0 0 34 34" fill="none" xmlns="http://www.w3.org/2000/svg">
<path d="M9 0.5C4.30558 0.5 0.5 4.30558 0.5 9V25C0.5 29.6944 4.30558 33.5 9 33.5H25C29.6944 33.5 33.5 29.6944 33.5 25V9C33.5 4.30558 29.6944 0.5 25 0.5H9Z" stroke="#8E949A" stroke-opacity="0.24"/>
<g opacity="0.64">
<path d="M9.89999 11.6V21.6678C9.89999 23.0663 11.0337 24.2 12.4322 24.2H23.5677C24.9663 24.2 26.1 23.0663 26.1 21.6678V13.4" stroke="#798694" stroke-width="1.125"/>
<path d="M24.3 9.79999H11.7C10.7059 9.79999 9.89999 10.6059 9.89999 11.6V11.6C9.89999 12.5941 10.7059 13.4 11.7 13.4H26.1" stroke="#798694" stroke-width="1.125" stroke-linecap="round"/>
<circle cx="22.05" cy="18.8" r="1.35" stroke="#798694" stroke-width="0.9"/>
</g>
</svg>
